<svg id="Layer_1" data-name="Layer 1" xmlns="http://www.w3.org/2000/svg" viewBox="0 0 500 500"><defs><style>.cls-1{fill:#48ba6c;}</style></defs><rect class="cls-1" x="0.5" y="-0.5" width="500" height="500"/><path d="M387.27,359.73c14.89,3.27,30,.59,45.23,1.86v64.67a26.75,26.75,0,0,1-3.13.31c-13.18,0-26.36-.05-39.54-.21-19.16-.25-35.54-6.57-47.6-22.13-.3-.38-.72-.67-.55-.51-10.79,5-20.86,10.78-31.66,14.4-57.39,19.27-113,16.13-164.9-16.74C107.73,377.7,85,342.77,74.54,300.14,63,252.94,66.09,206.6,87.88,162.71c24.94-50.23,66.05-79.92,121.06-90,37.48-6.88,74.28-3.7,109.35,11.72,47.79,21,78.68,57.5,93.09,107.19,14.23,49.11,11.13,97.55-10.7,144.22C396.91,343.88,392,351.39,387.27,359.73Z"/><path class="cls-1" d="M341,256.93c0-26.16-2.86-44.59-10.05-62.2-19.38-47.48-62.56-68.41-109.91-58-28.21,6.18-48.12,23.62-60.9,49C144.9,216,142.67,248,149,280.84c3.88,20.14,11.66,38.71,25.54,54.09,21.59,24,49.12,32.58,80.64,29.15,32.66-3.54,55.77-21.27,71-49.73A129,129,0,0,0,341,256.93Z"/><path d="M266.63,308.25h-46.3c.59-4.7,1.07-9.18,1.73-13.64,2.44-16.39,4.86-32.78,7.47-49.14.56-3.5-1.66-5.08-3.59-7.06-11.32-11.54-7.58-31.79,7.06-38.34,11.45-5.11,24-1.58,30.76,8.64,6.58,10,4.77,22.84-4.18,31.41a6.57,6.57,0,0,0-1.85,4.8c2.56,18.82,5.35,37.61,8.06,56.4C266.1,303.46,266.31,305.61,266.63,308.25Z"/></svg>